<svg xmlns="http://www.w3.org/2000/svg" viewBox="0 0 128.87 32.35"><defs><style>.cls-1{fill:#672bbe}.cls-2{fill:#47b9ff}</style></defs><title>stickredit-purple-logo-2020</title><g id="Layer_2" data-name="Layer 2"><g id="Layer_1-2" data-name="Layer 1"><path class="cls-1" d="M11.31 18.36a5 5 0 0 1-.48 2.23A4.5 4.5 0 0 1 9.5 22.2a6.18 6.18 0 0 1-2 1 9.78 9.78 0 0 1-2.55.32 10.16 10.16 0 0 1-1.59-.12A10.34 10.34 0 0 1 2 23.05a8.08 8.08 0 0 1-1-.39 2.66 2.66 0 0 1-.58-.37 1.23 1.23 0 0 1-.28-.55 4.41 4.41 0 0 1-.1-1.1v-.78a3 3 0 0 1 .1-.46.43.43 0 0 1 .17-.23.49.49 0 0 1 .25-.06 1.25 1.25 0 0 1 .54.21c.24.13.53.29.89.45a9.37 9.37 0 0 0 1.23.47 5.64 5.64 0 0 0 1.6.21 4.34 4.34 0 0 0 1-.11 2.41 2.41 0 0 0 .76-.34 1.34 1.34 0 0 0 .49-.54 1.71 1.71 0 0 0 .17-.77 1.24 1.24 0 0 0-.31-.85 2.49 2.49 0 0 0-.81-.62 8.27 8.27 0 0 0-1.12-.5c-.42-.16-.86-.33-1.31-.52a12.21 12.21 0 0 1-1.31-.64 5.32 5.32 0 0 1-1.15-.9 4.17 4.17 0 0 1-.81-1.28 4.78 4.78 0 0 1-.31-1.79A4.49 4.49 0 0 1 .5 9.64a4.09 4.09 0 0 1 1.19-1.52 5.69 5.69 0 0 1 1.9-1 8.57 8.57 0 0 1 2.52-.35 8.58 8.58 0 0 1 1.35.1 10.75 10.75 0 0 1 1.19.25 7.06 7.06 0 0 1 .9.32 3.86 3.86 0 0 1 .52.3.82.82 0 0 1 .32.55c0 .12 0 .26.06.43a5.72 5.72 0 0 1 0 .64 7.18 7.18 0 0 1 0 .73 2 2 0 0 1-.08.45.39.39 0 0 1-.16.22.44.44 0 0 1-.23.06 1.22 1.22 0 0 1-.47-.17 8.57 8.57 0 0 0-.79-.38 10.58 10.58 0 0 0-1.09-.37 5.17 5.17 0 0 0-1.42-.17 3.58 3.58 0 0 0-1 .11 2 2 0 0 0-.68.33 1.48 1.48 0 0 0-.4.51 1.44 1.44 0 0 0-.13.62 1.25 1.25 0 0 0 .31.87 3 3 0 0 0 .83.61 10.82 10.82 0 0 0 1.17.5c.44.15.88.32 1.33.5a14.71 14.71 0 0 1 1.36.66 5.21 5.21 0 0 1 1.17.9 4.17 4.17 0 0 1 .83 1.27 4.44 4.44 0 0 1 .31 1.75zm11.52 2.72a5.45 5.45 0 0 1-.09 1.13 1.45 1.45 0 0 1-.24.54 1.4 1.4 0 0 1-.44.29 4.73 4.73 0 0 1-.69.21 6.68 6.68 0 0 1-.84.14c-.31 0-.61.05-.92.05a6.66 6.66 0 0 1-2.16-.31 3.57 3.57 0 0 1-1.51-1 4 4 0 0 1-.88-1.65 8.6 8.6 0 0 1-.28-2.35v-7.57H13q-.32 0-.48-.39a3.64 3.64 0 0 1-.17-1.3v-.82a1.87 1.87 0 0 1 .13-.52.56.56 0 0 1 .21-.28.52.52 0 0 1 .31-.08h1.76v-3.3a.53.53 0 0 1 .09-.3.66.66 0 0 1 .33-.22 2.27 2.27 0 0 1 .65-.14 9.41 9.41 0 0 1 1 0 9.7 9.7 0 0 1 1 0 2.19 2.19 0 0 1 .64.14.66.66 0 0 1 .33.22.47.47 0 0 1 .1.3v3.3h3.22a.55.55 0 0 1 .29.08.56.56 0 0 1 .21.28 1.87 1.87 0 0 1 .13.52v.82a3.64 3.64 0 0 1-.17 1.3q-.16.39-.48.39h-3.16v7a3.5 3.5 0 0 0 .38 1.82 1.48 1.48 0 0 0 1.37.61 2.61 2.61 0 0 0 .59-.06 4.09 4.09 0 0 0 .48-.13l.34-.13a.69.69 0 0 1 .26-.06.33.33 0 0 1 .19.06.34.34 0 0 1 .14.23 2.66 2.66 0 0 1 .1.47 7.42 7.42 0 0 1 .04.71zM31 2.72a2.39 2.39 0 0 1-.51 1.75 2.84 2.84 0 0 1-1.88.53 2.83 2.83 0 0 1-1.9-.47 2.25 2.25 0 0 1-.49-1.67 2.4 2.4 0 0 1 .51-1.76 2.8 2.8 0 0 1 1.91-.54 2.81 2.81 0 0 1 1.9.48A2.28 2.28 0 0 1 31 2.72zm-.31 19.82a.45.45 0 0 1-.1.3.73.73 0 0 1-.34.2 2.74 2.74 0 0 1-.64.13 9.49 9.49 0 0 1-1 0 9.7 9.7 0 0 1-1 0A2.76 2.76 0 0 1 27 23a.72.72 0 0 1-.35-.2.51.51 0 0 1-.09-.3V7.77a.48.48 0 0 1 .09-.29.81.81 0 0 1 .35-.22 3.34 3.34 0 0 1 .63-.14 9.35 9.35 0 0 1 1 0 9.15 9.15 0 0 1 1 0 3.29 3.29 0 0 1 .64.14.83.83 0 0 1 .34.22.43.43 0 0 1 .1.29zm17.96.02a.48.48 0 0 1-.09.29.58.58 0 0 1-.33.2 3.77 3.77 0 0 1-.66.12 10.72 10.72 0 0 1-1.08 0h-1.1a4.49 4.49 0 0 1-.7-.11 1 1 0 0 1-.42-.21 1.25 1.25 0 0 1-.27-.35l-4.93-7.8v7.83a.45.45 0 0 1-.1.3.73.73 0 0 1-.34.2 2.74 2.74 0 0 1-.64.13 9.49 9.49 0 0 1-1 0 9.7 9.7 0 0 1-1 0 2.76 2.76 0 0 1-.63-.13.68.68 0 0 1-.34-.2.45.45 0 0 1-.1-.3V.71A.43.43 0 0 1 35 .42a.7.7 0 0 1 .34-.23A2.7 2.7 0 0 1 36 .05a9.35 9.35 0 0 1 1 0 9.15 9.15 0 0 1 1 .05 2.68 2.68 0 0 1 .64.14.75.75 0 0 1 .36.18.43.43 0 0 1 .1.29v13l4.38-5.89a2 2 0 0 1 .3-.35 1.08 1.08 0 0 1 .44-.23 3.43 3.43 0 0 1 .68-.13h2a3.16 3.16 0 0 1 .68.13.62.62 0 0 1 .35.21.44.44 0 0 1 .1.3 1.31 1.31 0 0 1-.12.53 2.88 2.88 0 0 1-.37.6l-4.29 4.92 5 7.75a3.84 3.84 0 0 1 .29.57 1.28 1.28 0 0 1 .11.44zm13.01-2.37v.72a4.41 4.41 0 0 1-.07.49 1.52 1.52 0 0 1-.1.32 1.17 1.17 0 0 1-.25.32 3.69 3.69 0 0 1-.68.46 6.19 6.19 0 0 1-1.1.49 8.45 8.45 0 0 1-1.34.35 8.78 8.78 0 0 1-4.51-.4 5.67 5.67 0 0 1-2.22-1.56A6.87 6.87 0 0 1 50 18.84a11.46 11.46 0 0 1-.46-3.42 11.87 11.87 0 0 1 .56-3.84 7.39 7.39 0 0 1 1.57-2.68A6.1 6.1 0 0 1 54 7.32a8.41 8.41 0 0 1 3-.51 8.05 8.05 0 0 1 1.3.11 8.27 8.27 0 0 1 1.19.32 5.79 5.79 0 0 1 1 .45 2.9 2.9 0 0 1 .62.43 1.57 1.57 0 0 1 .26.31 1.07 1.07 0 0 1 .12.32 4.36 4.36 0 0 1 .06.49 7 7 0 0 1 0 .7 3.84 3.84 0 0 1-.17 1.36c-.11.26-.25.39-.43.39a1.05 1.05 0 0 1-.6-.23c-.21-.16-.46-.33-.74-.52a5.49 5.49 0 0 0-1-.51 3.86 3.86 0 0 0-1.43-.24 2.82 2.82 0 0 0-2.49 1.26 6.42 6.42 0 0 0-.87 3.67 9.43 9.43 0 0 0 .22 2.11 4.47 4.47 0 0 0 .64 1.53 2.67 2.67 0 0 0 1.06.92 3.33 3.33 0 0 0 1.49.31 3.88 3.88 0 0 0 1.48-.26 5.84 5.84 0 0 0 1.09-.57q.47-.32.78-.57a.89.89 0 0 1 .53-.26.39.39 0 0 1 .25.08.6.6 0 0 1 .16.31 3.42 3.42 0 0 1 .09.57q.05.34.05.9zM74.2 9.11v1a4.09 4.09 0 0 1-.1.6.7.7 0 0 1-.18.3.4.4 0 0 1-.27.08 1.17 1.17 0 0 1-.3-.05l-.38-.13a4.15 4.15 0 0 0-.45-.12 2.38 2.38 0 0 0-.55-.06 1.78 1.78 0 0 0-.7.14 2.85 2.85 0 0 0-.72.44 5 5 0 0 0-.78.8 13.66 13.66 0 0 0-.87 1.22v9.23a.45.45 0 0 1-.1.3.73.73 0 0 1-.34.2 2.74 2.74 0 0 1-.64.13 9.49 9.49 0 0 1-1 0 9.7 9.7 0 0 1-1 0 2.76 2.76 0 0 1-.63-.13.64.64 0 0 1-.34-.2.45.45 0 0 1-.1-.3V7.74a.47.47 0 0 1 .08-.29.51.51 0 0 1 .3-.21 2.23 2.23 0 0 1 .55-.13h1.74a1.94 1.94 0 0 1 .54.13.53.53 0 0 1 .27.21.47.47 0 0 1 .08.29v1.84a12.81 12.81 0 0 1 1.1-1.37 6.08 6.08 0 0 1 1-.86 3.27 3.27 0 0 1 .93-.44 3.71 3.71 0 0 1 .93-.12h.46l.52.09a3.27 3.27 0 0 1 .46.13.76.76 0 0 1 .29.16.49.49 0 0 1 .14.18 2.56 2.56 0 0 1 .07.27 4.55 4.55 0 0 1 .05.53c-.07.25-.06.57-.06.96zm15.87 5.6a1.61 1.61 0 0 1-.34 1.13 1.24 1.24 0 0 1-.94.36h-9a6.13 6.13 0 0 0 .21 1.72 3.32 3.32 0 0 0 .71 1.31 3 3 0 0 0 1.27.82 5.32 5.32 0 0 0 1.85.29 10.77 10.77 0 0 0 1.92-.16 13.29 13.29 0 0 0 1.44-.35c.4-.13.74-.24 1-.35a2 2 0 0 1 .65-.16.49.49 0 0 1 .25.06.46.46 0 0 1 .17.21 1.67 1.67 0 0 1 .09.42v1.75a1.41 1.41 0 0 1-.1.31 1.37 1.37 0 0 1-.18.24 1.86 1.86 0 0 1-.59.32 10.11 10.11 0 0 1-1.23.39 14.48 14.48 0 0 1-1.71.33 14.68 14.68 0 0 1-2 .14A10.72 10.72 0 0 1 80 23a6.12 6.12 0 0 1-2.48-1.51A6.18 6.18 0 0 1 76 18.93a11.92 11.92 0 0 1-.49-3.62 11.55 11.55 0 0 1 .49-3.56 7.26 7.26 0 0 1 1.5-2.69 6.35 6.35 0 0 1 2.38-1.69 9.17 9.17 0 0 1 6.34 0 5.71 5.71 0 0 1 2.17 1.52 6 6 0 0 1 1.24 2.3 9.78 9.78 0 0 1 .4 2.88zm-4-1.2a4.27 4.27 0 0 0-.71-2.76 2.72 2.72 0 0 0-2.33-1 3.06 3.06 0 0 0-1.39.29 2.86 2.86 0 0 0-1 .81A3.68 3.68 0 0 0 80 12a5.79 5.79 0 0 0-.24 1.47zm21.48 9.03a.57.57 0 0 1-.08.31.63.63 0 0 1-.28.21 2.18 2.18 0 0 1-.54.12h-1.71a2.18 2.18 0 0 1-.54-.12.66.66 0 0 1-.29-.21.45.45 0 0 1-.1-.31V20.9a9.42 9.42 0 0 1-2.39 1.91 6.33 6.33 0 0 1-5.65 0 5.5 5.5 0 0 1-1.91-1.77A7.7 7.7 0 0 1 93 18.47a14.37 14.37 0 0 1-.33-3.13 13.78 13.78 0 0 1 .42-3.55 8 8 0 0 1 1.23-2.69 5.54 5.54 0 0 1 2-1.71 6.22 6.22 0 0 1 2.79-.6 4.94 4.94 0 0 1 2.26.51 7.73 7.73 0 0 1 2 1.48v-8a.53.53 0 0 1 .09-.3.73.73 0 0 1 .33-.22 2.8 2.8 0 0 1 .64-.14 10.33 10.33 0 0 1 2 0 2.7 2.7 0 0 1 .63.14.86.86 0 0 1 .33.22.47.47 0 0 1 .1.3zm-4.15-9.89a9.36 9.36 0 0 0-1.72-1.73 2.93 2.93 0 0 0-1.72-.59 2.4 2.4 0 0 0-1.4.4 3.05 3.05 0 0 0-1 1.09 6.19 6.19 0 0 0-.53 1.52 8.88 8.88 0 0 0-.17 1.72 10.78 10.78 0 0 0 .15 1.81 5.66 5.66 0 0 0 .49 1.57 3 3 0 0 0 .9 1.1 2.35 2.35 0 0 0 1.43.42 3 3 0 0 0 .84-.13 3 3 0 0 0 .83-.41 5.43 5.43 0 0 0 .87-.73 13.77 13.77 0 0 0 1-1.13zm12.85-9.93a2.39 2.39 0 0 1-.51 1.75 2.86 2.86 0 0 1-1.91.48 2.81 2.81 0 0 1-1.9-.47 2.25 2.25 0 0 1-.49-1.67 2.4 2.4 0 0 1 .5-1.76 2.84 2.84 0 0 1 1.92-.49 2.76 2.76 0 0 1 1.89.48 2.28 2.28 0 0 1 .5 1.68zm-.32 19.82a.45.45 0 0 1-.1.3.68.68 0 0 1-.34.2 2.76 2.76 0 0 1-.63.13 9.7 9.7 0 0 1-1 0 9.49 9.49 0 0 1-1 0 2.74 2.74 0 0 1-.64-.13.73.73 0 0 1-.34-.2.45.45 0 0 1-.1-.3V7.77a.43.43 0 0 1 .1-.29.83.83 0 0 1 .34-.22 3.29 3.29 0 0 1 .64-.14 9.15 9.15 0 0 1 1 0 9.35 9.35 0 0 1 1 0 3.34 3.34 0 0 1 .63.14.77.77 0 0 1 .34.22.43.43 0 0 1 .1.29zm12.94-1.46a5.45 5.45 0 0 1-.09 1.13 1.45 1.45 0 0 1-.24.54 1.4 1.4 0 0 1-.44.29 4.73 4.73 0 0 1-.69.21 6.68 6.68 0 0 1-.84.14c-.31 0-.61.05-.92.05a6.66 6.66 0 0 1-2.16-.31 3.57 3.57 0 0 1-1.51-1 4 4 0 0 1-.88-1.65 8.6 8.6 0 0 1-.28-2.35v-7.57H119q-.32 0-.48-.39a3.64 3.64 0 0 1-.17-1.3v-.82a1.87 1.87 0 0 1 .13-.52.56.56 0 0 1 .21-.28.52.52 0 0 1 .29-.08h1.76v-3.3a.53.53 0 0 1 .09-.3.66.66 0 0 1 .33-.22 2.27 2.27 0 0 1 .65-.14 9.41 9.41 0 0 1 1 0 9.7 9.7 0 0 1 1 0 2.19 2.19 0 0 1 .64.14.66.66 0 0 1 .33.22.47.47 0 0 1 .1.3v3.3h3.22a.55.55 0 0 1 .29.08.56.56 0 0 1 .21.28 1.87 1.87 0 0 1 .13.52v.82a3.64 3.64 0 0 1-.17 1.3q-.16.39-.48.39H125v7a3.5 3.5 0 0 0 .38 1.82 1.48 1.48 0 0 0 1.37.61 2.61 2.61 0 0 0 .59-.06 4.09 4.09 0 0 0 .48-.13l.35-.13a.61.61 0 0 1 .25-.06.33.33 0 0 1 .19.06.34.34 0 0 1 .14.23 2.66 2.66 0 0 1 .1.47 7.42 7.42 0 0 1 .02.71z"/><path class="cls-2" d="M34.43 30.35h60v2h-60z"/></g></g></svg>