<svg viewBox="0 0 96 96" xmlns="http://www.w3.org/2000/svg" xmlns:xlink="http://www.w3.org/1999/xlink" id="Icons_Agriculture_M" overflow="hidden"><g id="Icons"><path d="M42.315 67.4C43.229 66.99 44.15 66.593 45.071 66.2L44.082 65.869C32.0852 61.8269 19.6881 59.0881 7.105 57.7L5.005 57.488 5.005 59.5 6.895 59.691C18.9374 61.0232 30.8082 63.6068 42.315 67.4Z" fill="#009193"/><path d="M23.8 52.036 25.8 52.453C36.1896 54.6572 46.3549 57.8104 56.168 61.873 57.1087 61.543 58.052 61.2203 58.998 60.905 48.4356 56.3717 37.4536 52.8867 26.21 50.5L24.2 50.077 24 50.04 24 43.334C25.8679 43.3156 27.6737 42.6605 29.119 41.477 31.363 39.321 30.983 35.477 30.966 35.316L30.883 34.543 30.114 34.432C28.9219 34.2927 27.7146 34.3658 26.548 34.648 26.6889 34.169 26.7797 33.6767 26.819 33.179 26.819 30.116 23.844 27.379 23.719 27.26L23.046 26.648 22.373 27.26C22.246 27.375 19.273 30.116 19.273 33.251 19.3082 33.7191 19.3875 34.1828 19.51 34.636 18.3294 34.3481 17.1066 34.2749 15.9 34.42L15.132 34.532 15.05 35.303C15.033 35.466 14.65 39.308 16.895 41.464 18.3365 42.6438 20.1374 43.2964 22 43.314L22 49.667C17.084 48.751 12.084 48.026 7.087 47.534L5.005 47.35 5.005 49.358 6.905 49.525C12.572 50.084 18.259 50.929 23.8 52.036ZM29 36.361C29.0468 37.7 28.5965 39.009 27.736 40.036 26.7819 40.7929 25.6161 41.2346 24.4 41.3 24.2938 40.4465 24.3093 39.5822 24.446 38.733 24.6281 38.2617 24.9126 37.8368 25.279 37.489 26.306 36.6869 27.5902 36.287 28.891 36.364ZM23.05 29.446C24.0182 30.4424 24.6411 31.7232 24.827 33.1 24.7139 34.3202 24.1842 35.4643 23.327 36.34 23.108 36.3787 22.8823 36.3486 22.681 36.254 21.84 35.4419 21.3364 34.3423 21.271 33.175 21.4447 31.7722 22.069 30.4637 23.05 29.446ZM21.694 41.285C20.4539 41.2307 19.262 40.789 18.286 40.022 17.4271 38.9945 16.9774 37.6864 17.023 36.348 18.3514 36.2509 19.6695 36.6421 20.73 37.448 21.1021 37.8338 21.3992 38.2855 21.606 38.78 21.8268 39.5972 21.8569 40.4543 21.694 41.285Z" fill="#009193"/><path d="M28.251 73.387 29.451 73.676 29.62 73.725C30.4553 73.267 31.294 72.816 32.136 72.372L29.964 71.744 28.719 71.444C21.5972 69.7467 14.377 68.493 7.1 67.69L5.01 67.5 5.01 69.508 6.9 69.679C14.0867 70.4735 21.2173 71.7119 28.251 73.387Z" fill="#009193"/><path d="M15.332 80.48C15.966 80.571 16.909 80.68 17.832 80.789 18.7227 80.207 19.6187 79.6337 20.52 79.069 19.501 78.962 16.879 78.682 15.62 78.5L14.355 78.322C12.185 78.016 9.883 77.747 7.105 77.474L5.01 77.285 5.01 79.293 6.918 79.465C9.659 79.735 11.934 80.001 14.076 80.302Z" fill="#009193"/><rect x="46.653" y="6.856" width="2" height="5" fill="#009193"/><rect x="46.653" y="28" width="2" height="5" fill="#009193"/><rect x="55.725" y="18.928" width="5" height="2" fill="#009193"/><rect x="34.581" y="18.928" width="5" height="2" fill="#009193"/><rect x="52.629" y="11.452" width="5" height="2" fill="#009193" transform="matrix(0.707107 -0.707107 0.707107 0.707107 7.342 42.629)"/><rect x="37.677" y="26.404" width="5" height="2" fill="#009193" transform="matrix(0.707107 -0.707107 0.707107 0.707107 -7.61 36.436)"/><rect x="54.129" y="24.903" width="2" height="5" fill="#009193" transform="matrix(0.707107 -0.707107 0.707107 0.707107 -3.23 47.008)"/><rect x="39.178" y="9.952" width="2" height="5" fill="#009193" transform="matrix(0.707082 -0.707131 0.707131 0.707082 2.963 32.058)"/><path d="M47.653 25.984C50.9667 25.984 53.653 23.2977 53.653 19.984 53.653 16.6703 50.9667 13.984 47.653 13.984 44.3393 13.984 41.653 16.6703 41.653 19.984 41.653 23.2977 44.3393 25.984 47.653 25.984ZM47.653 15.984C49.8621 15.984 51.653 17.7749 51.653 19.984 51.653 22.1931 49.8621 23.984 47.653 23.984 45.4439 23.984 43.653 22.1931 43.653 19.984 43.6535 17.7744 45.4434 15.9828 47.653 15.98Z" fill="#009193"/><path d="M32.233 88 36.465 88 38.179 87.081C54.6796 78.2205 72.5273 72.1391 91.005 69.081L91.005 67.056C72.1957 70.1316 54.026 76.3025 37.234 85.318Z" fill="#009193"/><path d="M55.517 88 61.3 88 69.135 85.114C76.2933 82.7597 83.5979 80.876 91.002 79.475L91.002 77.437C83.3729 78.8647 75.8472 80.7987 68.475 83.226Z" fill="#009193"/><path d="M79.8 58.4 78 58.778 78 53.974C79.8678 53.955 81.6734 53.3 83.119 52.117 85.363 49.961 84.983 46.117 84.966 45.956L84.883 45.183 84.114 45.072C82.9219 44.9327 81.7146 45.0058 80.548 45.288 80.6889 44.809 80.7797 44.3167 80.819 43.819 80.819 40.756 77.844 38.019 77.719 37.9L77.046 37.288 76.373 37.9C76.246 38.015 73.273 40.756 73.273 43.891 73.3082 44.3591 73.3875 44.8228 73.51 45.276 72.3294 44.9881 71.1066 44.9149 69.9 45.06L69.132 45.172 69.05 45.943C69.033 46.106 68.65 49.948 70.895 52.104 72.3346 53.2836 74.1339 53.9362 75.995 53.954L75.995 59.242C53.4815 64.4237 32.2119 73.9972 13.405 87.414L12.594 88 16.08 88C34.7995 74.9282 55.914 65.678 78.214 60.779L80.214 60.359C83.914 59.589 87.53 58.959 91.006 58.459L91.006 56.439C87.4 56.948 83.646 57.6 79.8 58.4ZM83 47C83.0468 48.339 82.5965 49.648 81.736 50.675 80.7817 51.4303 79.6163 51.8706 78.401 51.935 78.2948 51.0815 78.3103 50.2172 78.447 49.368 78.6288 48.8966 78.9134 48.4716 79.28 48.124 80.3074 47.3221 81.592 46.9224 82.893 47ZM77.05 40.086C78.0188 41.0832 78.6417 42.3651 78.827 43.743 78.7136 44.9631 78.184 46.1071 77.327 46.983 77.108 47.0218 76.8823 46.9918 76.681 46.897 75.84 46.0849 75.3364 44.9853 75.271 43.818 75.4441 42.4141 76.0684 41.1045 77.05 40.086ZM75.694 51.925C74.4539 51.8707 73.262 51.429 72.286 50.662 71.4271 49.6345 70.9774 48.3264 71.023 46.988 72.3518 46.8868 73.6714 47.2784 74.73 48.088 75.1021 48.4738 75.3992 48.9255 75.606 49.42 75.8268 50.2372 75.8569 51.0943 75.694 51.925Z" fill="#009193"/></g></svg>