<svg xmlns="http://www.w3.org/2000/svg" xmlns:xlink="http://www.w3.org/1999/xlink" xmlns:svgjs="http://svgjs.com/svgjs" width="113.87603574150558" height="112.79339080074749" version="1.1" style=""><rect id="backgroundrect" width="100%" height="100%" x="0" y="0" fill="none" stroke="none" class="selected" style=""/><defs id="SvgjsDefs1054"/><g class="currentLayer" style=""><title>Layer 1</title><path fill="#009193" d="M17.49727346420289,30.774874088764193 H44.21727346420289 a1.79,1.79 0 1 0 0,-3.5700000000000003 H17.49727346420289 a1.79,1.79 0 0 0 0,3.5700000000000003 zM17.49727346420289,25.424874088764184 h16 a1.78,1.78 0 1 0 0,-3.56 h-16 a1.78,1.78 0 1 0 0,3.56 zM46.00727346420288,34.334874088764195 a1.78,1.78 0 0 0 -1.79,-1.78 H17.49727346420289 a1.78,1.78 0 0 0 0,3.56 H44.21727346420289 A1.79,1.79 0 0 0 46.00727346420288,34.334874088764195 z" class="colorab79d0 svgShape" id="svg_3" opacity="1"/><path fill="#009193" d="M110.14727346420287,9.384874088764192 H58.47727346420288 V4.044874088764189 a1.78,1.78 0 0 0 -3.56,0 v5.34 H3.237273464202886 V84.21487408876419 H52.3972734642029 L30.48727346420287,106.13487408876418 a1.79,1.79 0 0 0 0,2.52 a1.79,1.79 0 0 0 2.52,0 l21.91,-21.91 v17.08 a1.78,1.78 0 0 0 3.56,0 V86.74487408876419 l21.9,21.91 a1.82,1.82 0 0 0 1.26,0.52 a1.78,1.78 0 0 0 1.26,-3 L60.99727346420286,84.21487408876419 h49.15 zm-3.56,71.28 H6.807273464202879 V12.954874088764186 h99.78 z" class="colorab79d0 svgShape" id="svg_4" opacity="1"/><path fill="#009193" d="M76.29727346420287,37.8948740887642 h8.17 L63.107273464202876,59.21487408876419 L48.337273464202895,44.47487408876418 a1.79,1.79 0 0 0 -2.52,0 L23.357273464202876,66.93487408876422 a1.79,1.79 0 0 0 1.26,3 a1.7600000000000002,1.7600000000000002 0 0 0 1.26,-0.53 L47.077273464202875,48.21487408876419 l14.77,14.78 a1.78,1.78 0 0 0 1.26,0.52 a1.75,1.75 0 0 0 1.26,-0.52 L86.98727346420287,40.41487408876418 v8.17 a1.78,1.78 0 1 0 3.56,0 V36.114874088764196 a1.79,1.79 0 0 0 -0.13,-0.6800000000000008 a1.7600000000000002,1.7600000000000002 0 0 0 -1,-1 a1.8,1.8 0 0 0 -0.6800000000000008,-0.14 H76.29727346420287 a1.78,1.78 0 1 0 0,3.56 z" class="colorab79d0 svgShape" id="svg_5" opacity="1"/></g></svg>