<svg viewBox="0 0 96 96" xmlns="http://www.w3.org/2000/svg" xmlns:xlink="http://www.w3.org/1999/xlink" id="Icons_LifeRing_M" overflow="hidden"><g id="Icons"><path d="M48 13C28.67 13 13 28.67 13 48 13 67.33 28.67 83 48 83 67.33 83 83 67.33 83 48 82.978 28.6792 67.3208 13.022 48 13ZM80.014 40 62.992 40C61.4001 37.0321 58.9679 34.5999 56 33.008L56 15.986C67.8127 18.9637 77.0363 28.1873 80.014 40ZM48 63C39.7157 63 33 56.2843 33 48 33 39.7157 39.7157 33 48 33 56.2843 33 63 39.7157 63 48 62.9906 56.2804 56.2804 62.9906 48 63ZM54 15.557 54 32.114C50.1379 30.6287 45.8621 30.6287 42 32.114L42 15.557C45.9655 14.8143 50.0345 14.8143 54 15.557ZM40 15.986 40 33.008C37.0321 34.5999 34.5999 37.0321 33.008 40L15.986 40C18.9637 28.1873 28.1873 18.9637 40 15.986ZM15.557 42 32.114 42C30.6287 45.8621 30.6287 50.1379 32.114 54L15.557 54C14.8143 50.0345 14.8143 45.9655 15.557 42ZM15.986 56 33.008 56C34.5999 58.9679 37.0321 61.4001 40 62.992L40 80.014C28.1873 77.0363 18.9637 67.8127 15.986 56ZM42 80.443 42 63.886C45.8621 65.3713 50.1379 65.3713 54 63.886L54 80.443C50.0345 81.1857 45.9655 81.1857 42 80.443ZM56 80.014 56 62.992C58.9679 61.4001 61.4001 58.9679 62.992 56L80.014 56C77.0363 67.8127 67.8127 77.0363 56 80.014ZM80.443 54 63.886 54C65.3713 50.1379 65.3713 45.8621 63.886 42L80.443 42C81.1857 45.9655 81.1857 50.0345 80.443 54Z" fill="#BF3000"/></g></svg>