<svg xmlns="http://www.w3.org/2000/svg" xmlns:xlink="http://www.w3.org/1999/xlink" xmlns:svgjs="http://svgjs.com/svgjs" width="82.21488252072663" height="104.52893140402136" version="1.1"><rect id="backgroundrect" width="100%" height="100%" x="0" y="0" fill="none" stroke="none" class="selected" style=""/><defs id="SvgjsDefs1028"/><g class="currentLayer" style=""><title>Layer 1</title><path fill="#009193" d="M76.5012420654297,4.156863098144527 H6.401242065429685 A1.6,1.6 0 0 0 4.8512420654296875,5.776863098144531 v92.4 a1.6,1.6 0 0 0 1.6,1.6 h60.54 a1.61,1.61 0 0 0 1.13,-0.47000000000000003 l9.55,-9.56 a1.58,1.58 0 0 0 0.47000000000000003,-1.12 V5.776863098144531 A1.59,1.59 0 0 0 76.5012420654297,4.156863098144527 zM7.991242065429688,7.3368630981445335 h66.92 v79.66 h-8 a1.6,1.6 0 0 0 -1.59,1.6 v8 H7.991242065429688 zm64.66,82.85 l-4.12,4.12 v-4.12 z" class="colorab79d0 svgShape" id="svg_3"/><path fill="#009193" d="M12.77124206542969,45.57686309814453 h9.56 V48.77686309814453 H12.77124206542969 zM38.261242065429684,45.57686309814453 h31.87 V48.77686309814453 H38.261242065429684 zM31.851242065429688,45.57686309814453 h3.19 V48.77686309814453 H31.851242065429688 zM12.77124206542969,39.20686309814454 h9.56 v3.18 H12.77124206542969 zM31.851242065429688,39.20686309814454 H63.75124206542969 v3.18 H31.851242065429688 zM66.94124206542969,39.20686309814454 h3.19 v3.18 h-3.19 zM12.77124206542969,58.31686309814454 h9.56 v3.19 H12.77124206542969 zM38.261242065429684,58.31686309814454 h31.87 v3.19 H38.261242065429684 zM31.851242065429688,58.31686309814454 h3.19 v3.19 H31.851242065429688 zM12.77124206542969,51.94686309814453 h9.56 v3.19 H12.77124206542969 zM31.851242065429688,51.94686309814453 H63.75124206542969 v3.19 H31.851242065429688 zM66.94124206542969,51.94686309814453 h3.19 v3.19 h-3.19 zM12.77124206542969,71.06686309814452 h9.56 v3.19 H12.77124206542969 zM38.261242065429684,71.06686309814452 h31.87 v3.19 H38.261242065429684 zM31.851242065429688,71.06686309814452 h3.19 v3.19 H31.851242065429688 zM12.77124206542969,64.69686309814453 h9.56 v3.18 H12.77124206542969 zM31.851242065429688,64.69686309814453 H63.75124206542969 v3.18 H31.851242065429688 zM66.94124206542969,64.69686309814453 h3.19 v3.18 h-3.19 zM11.181242065429686,29.646863098144536 h60.54 v3.18 H11.181242065429686 zM19.141242065429687,26.456863098144538 a8,8 0 1 0 -8,-8 A8,8 0 0 0 19.141242065429687,26.456863098144538 zm0,-12.74 a4.78,4.78 0 1 1 -4.78,4.77 A4.78,4.78 0 0 1 19.141242065429687,13.716863098144529 zM30.30124206542969,10.526863098144531 H46.23124206542968 v3.19 H30.30124206542969 zM30.30124206542969,16.896863098144536 H39.85124206542969 v3.19 H30.30124206542969 zM49.41124206542969,10.526863098144531 h22.31 v3.19 H49.41124206542969 zM43.041242065429685,16.896863098144536 h28.68 v3.19 H43.041242065429685 zM30.30124206542969,23.266863098144526 h22.3 v3.19 H30.30124206542969 zM55.791242065429685,23.266863098144526 h3.18 v3.19 H55.791242065429685 zM11.181242065429686,80.62686309814453 V93.37686309814453 H52.60124206542969 V80.62686309814453 zm38.23,9.56 H14.361242065429686 V83.77686309814453 H49.41124206542969 z" class="colorab79d0 svgShape" id="svg_4"/></g></svg>